<svg width="24" height="24" viewBox="0 0 24 24" fill="none" xmlns="http://www.w3.org/2000/svg">
<path fill-rule="evenodd" clip-rule="evenodd" d="M20.3727 3.62255C22.2902 5.53716 23.538 7.94329 23.9895 10.5871C24.0556 10.957 23.8019 11.3119 23.4316 11.3673C23.4254 11.3681 23.4192 11.3688 23.4132 11.3695C23.3799 11.3735 23.3492 11.3772 23.315 11.3772C22.9851 11.3772 22.696 11.1443 22.6403 10.8105C22.2395 8.44948 21.1235 6.29643 19.4088 4.58461C17.6942 2.87794 15.5384 1.75787 13.1745 1.35822C12.799 1.29169 12.5506 0.942746 12.6115 0.568053C12.6774 0.197728 13.0274 -0.055356 13.3977 0.0104049C16.0457 0.461131 18.4553 1.70716 20.3727 3.62255ZM18.9778 14.8679C18.4856 14.3558 17.8922 14.0825 17.263 14.0825C16.6391 14.0825 16.0406 14.3511 15.5283 14.8624L13.9251 16.4578C13.8431 16.4136 13.761 16.3717 13.6802 16.3303L13.6801 16.3302L13.6796 16.33C13.6307 16.305 13.5824 16.2803 13.5347 16.2554C13.352 16.1643 13.1795 16.0779 13.0324 15.9869C11.5309 15.0351 10.1663 13.7934 8.85766 12.1878C8.22357 11.3881 7.79727 10.714 7.48798 10.0303C7.85867 9.69147 8.20526 9.34063 8.54206 8.9997L8.66492 8.87539C8.73897 8.80138 8.81312 8.72596 8.88727 8.65055L8.88742 8.6504C8.95526 8.58139 9.02311 8.51239 9.09087 8.44447C10.1563 7.38104 10.1563 6.00349 9.09087 4.93965L7.70602 3.55617C7.54875 3.39933 7.38646 3.23733 7.23421 3.07573C6.92994 2.76126 6.61027 2.43687 6.28068 2.13348C5.78857 1.6467 5.2001 1.38887 4.58129 1.38887C3.96249 1.38887 3.36387 1.6467 2.85647 2.13348L2.84631 2.14298L1.12161 3.88094C0.472249 4.52931 0.102055 5.31948 0.0208648 6.23639C-0.100837 7.71531 0.335284 9.09325 0.670222 9.9947C1.49192 12.2083 2.71962 14.26 4.55084 16.4578C6.77267 19.1075 9.44613 21.1991 12.4999 22.6733C13.6665 23.2254 15.2239 23.879 16.9639 23.9906C17.0703 23.9954 17.1819 24.0001 17.2833 24.0001C18.4553 24.0001 19.4394 23.5803 20.2104 22.7438C20.2128 22.7395 20.2163 22.736 20.2199 22.7324C20.2239 22.7284 20.228 22.7243 20.2307 22.7189C20.4719 22.4269 20.7472 22.1608 21.0368 21.8808L21.0368 21.8808L21.1183 21.802C21.3365 21.5944 21.5597 21.3766 21.7779 21.1488C22.28 20.6268 22.5438 20.0193 22.5438 19.3962C22.5438 18.7681 22.275 18.1648 21.7626 17.6587L18.9778 14.8679ZM20.291 20.7065L20.291 20.7066L20.1749 20.8193C19.8451 21.1338 19.5103 21.4625 19.1957 21.8329C18.6836 22.3798 18.0798 22.6381 17.2885 22.6381C17.2124 22.6381 17.1312 22.6381 17.0552 22.6329C15.5486 22.5367 14.1484 21.9489 13.0984 21.4475C10.2271 20.0597 7.70602 18.0888 5.61102 15.5916C3.8813 13.5102 2.72464 11.5853 1.95871 9.51901C1.4869 8.25674 1.31447 7.27488 1.39055 6.34729C1.44128 5.75475 1.66949 5.26404 2.09054 4.843L3.82027 3.11574C4.0689 2.88284 4.33268 2.7561 4.59145 2.7561C4.911 2.7561 5.16976 2.94899 5.33193 3.11099C5.33707 3.11574 5.3422 3.12088 5.34722 3.12604C5.65674 3.41517 5.95098 3.7134 6.26026 4.03265C6.34522 4.12038 6.43168 4.20798 6.51883 4.29629C6.593 4.37144 6.66767 4.4471 6.74234 4.52377L8.12707 5.90645C8.66492 6.44353 8.66492 6.9406 8.12707 7.47728C8.07385 7.53029 8.0213 7.5833 7.96894 7.63613C7.87656 7.72933 7.78475 7.82195 7.69085 7.91295C7.26479 8.34823 6.8589 8.75342 6.41753 9.14868C6.41359 9.15285 6.40965 9.15611 6.406 9.15913C6.40028 9.16386 6.3953 9.16799 6.39223 9.17403C5.95587 9.60971 6.03709 10.0351 6.12843 10.3238L6.14372 10.3694C6.50388 11.2411 7.01116 12.0614 7.78222 13.0393L7.78723 13.0444C9.18725 14.7662 10.6634 16.1088 12.2918 17.137C12.4999 17.2681 12.713 17.3751 12.9159 17.4761L12.9299 17.4831C13.1072 17.572 13.2746 17.6558 13.4179 17.7446C13.4283 17.7496 13.4386 17.7561 13.4488 17.7625L13.4489 17.7625C13.4589 17.7687 13.4689 17.775 13.4789 17.7799C13.6513 17.8666 13.8136 17.907 13.9811 17.907C14.4012 17.907 14.6648 17.6443 14.7515 17.5578L14.7521 17.5573L16.4871 15.8249C16.6595 15.6526 16.9333 15.445 17.253 15.445C17.5674 15.445 17.8261 15.6427 17.9836 15.8149L17.9936 15.8249L20.7887 18.6156C21.3112 19.1329 21.3112 19.6644 20.7938 20.2014C20.6314 20.3763 20.4658 20.537 20.291 20.7065ZM12.9716 5.70907C14.3006 5.93206 15.508 6.56022 16.4718 7.52227C17.4356 8.48474 18.0595 9.69037 18.2878 11.0176C18.3437 11.3523 18.6327 11.5852 18.9625 11.5852C18.9988 11.5852 19.0312 11.581 19.0667 11.5765L19.0667 11.5765L19.0792 11.5749C19.4545 11.5143 19.703 11.1598 19.6422 10.7847C19.3683 9.17904 18.6074 7.71516 17.4457 6.55547C16.2841 5.39498 14.8181 4.6357 13.2101 4.36203C12.8346 4.30104 12.4846 4.54937 12.4187 4.9185C12.3528 5.28883 12.5962 5.64847 12.9716 5.70907Z" fill="white"/>
</svg>
