<svg width="40" height="40" viewBox="0 0 40 40" fill="none" xmlns="http://www.w3.org/2000/svg">
<path fill-rule="evenodd" clip-rule="evenodd" d="M20 8e-05C31.0457 8e-05 40 8.95436 40 20C40 31.0458 31.0457 40 20 40C8.95428 40 4e-05 31.0458 4e-05 20C4e-05 8.95436 8.95428 8e-05 20 8e-05Z" fill="white"/>
<path fill-rule="evenodd" clip-rule="evenodd" d="M28.3848 11.8574C27.3375 10.6659 25.9511 10.0148 24.4713 10.0148C22.9916 10.0148 21.6009 10.6708 20.5536 11.8619L20.0066 12.484L19.4513 11.8519C18.404 10.6608 17.009 10 15.5292 10C14.0536 10 12.6631 10.6563 11.62 11.8422C10.5727 13.0337 9.99597 14.6157 10.0003 16.2985C10.0003 17.9816 10.5812 19.5592 11.6285 20.7503L19.5911 29.8071C19.7014 29.9324 19.8497 30 19.9938 30C20.138 30 20.2865 29.9372 20.3967 29.8116L28.3764 20.7696C29.4235 19.5782 30.0002 17.9961 30.0002 16.3134C30.0045 14.6302 29.4321 13.0485 28.3848 11.8574ZM27.5707 19.848L19.9938 28.4324L12.434 19.8335C11.603 18.8884 11.1451 17.6345 11.1451 16.2985C11.1451 14.9628 11.5987 13.7086 12.4298 12.7683C13.2566 11.8284 14.359 11.307 15.5292 11.307C16.7037 11.307 17.8103 11.8284 18.6414 12.7735L19.5995 13.8632C19.8244 14.1188 20.1847 14.1188 20.4094 13.8632L21.3592 12.7828C22.1902 11.8377 23.2968 11.3167 24.4671 11.3167C25.6373 11.3167 26.7398 11.8377 27.5707 12.7783C28.4019 13.7234 28.8554 14.9773 28.8554 16.3134C28.8597 17.649 28.4019 18.9029 27.5707 19.848Z" fill="#282828"/>
</svg>
